<?xml version="1.0" encoding="utf-8"?>
<!-- Generator: Adobe Illustrator 17.0.0, SVG Export Plug-In . SVG Version: 6.00 Build 0)  -->
<!DOCTYPE svg PUBLIC "-//W3C//DTD SVG 1.1//EN" "http://www.w3.org/Graphics/SVG/1.1/DTD/svg11.dtd">
<svg version="1.1" id="Layer_1" xmlns="http://www.w3.org/2000/svg" xmlns:xlink="http://www.w3.org/1999/xlink" x="0px" y="0px"
	 width="50px" height="36px" viewBox="0 0 50 36" enable-background="new 0 0 50 36" xml:space="preserve">
<g>
	<path fill="#66CCCC" d="M9.873,33.448h30.199c4.728-4.275,7.422-10.312,7.422-16.699c0-4.18-1.158-8.086-3.156-11.439H5.607
		c-1.998,3.353-3.156,7.259-3.156,11.439C2.451,23.136,5.145,29.173,9.873,33.448z"/>
	<path fill="#FFFFFF" d="M47.114,5.309c-0.413-0.789-0.852-1.563-1.343-2.301l0.041,0.021V0.101h-2.264h-3.463
		c1.663,1.511,3.096,3.269,4.252,5.209c1.998,3.353,3.156,7.259,3.156,11.439c0,6.387-2.694,12.425-7.422,16.699H9.873
		c-4.728-4.275-7.422-10.312-7.422-16.699c0-4.18,1.158-8.086,3.156-11.439c1.156-1.94,2.589-3.698,4.252-5.209H6.396H4.132V3.03
		l0.041-0.021C3.683,3.747,3.243,4.52,2.831,5.309C1.04,8.736,0,12.613,0,16.749c0,7.694,3.485,14.57,8.956,19.151h32.032
		c5.471-4.581,8.956-11.456,8.956-19.151C49.945,12.613,48.905,8.736,47.114,5.309z"/>
</g>
<path fill="#F4D07D" d="M27.087,11.843c-2.592,0-4.918,0.771-6.545,1.994c-1.627-1.223-3.953-1.994-6.545-1.994
	c-0.013,0-0.026,0.001-0.039,0.001c2.004,1.455,3.286,3.671,3.286,6.156s-1.282,4.7-3.286,6.156c0.013,0,0.026,0.001,0.039,0.001
	c2.592,0,4.918-0.771,6.545-1.994c1.627,1.223,3.953,1.994,6.545,1.994c4.916,0,8.901-2.757,8.901-6.157
	C35.988,14.599,32.003,11.843,27.087,11.843z"/>
</svg>
